PathFileType	4	(X/Y/Z)	s10c0402.trc
DataRate	CameraRate	NumFrames	NumMarkers	Units	OrigDataRate	OrigDataStartFrame	OrigNumFrames
200	200	5	49	mm	200	0	2000
Frame#	Time	racr			lacr			c7			jug			rlel			rdr			llel			ldr			s2			lic			ric			lasi			rasi			rpsi			lpsi			rgt			lgt			rth1			rth2			rth3			rth4			rlfc			rmfc			rsh1			rsh2			rsh3			rsh4			rlmal			rmmal			rcal			rtoe			rmt5			lth1			lth2			lth4			lth3			llfc			lmfc			llmal			lcal			lmt5			lsh1			lsh2			lsh3			lsh4			ltoe			SBIKE			LBIKE			RBIKE			
		X1	Y1	Z1	X2	Y2	Z2	X3	Y3	Z3	X4	Y4	Z4	X5	Y5	Z5	X6	Y6	Z6	X7	Y7	Z7	X8	Y8	Z8	X9	Y9	Z9	X10	Y10	Z10	X11	Y11	Z11	X12	Y12	Z12	X13	Y13	Z13	X14	Y14	Z14	X15	Y15	Z15	X16	Y16	Z16	X17	Y17	Z17	X18	Y18	Z18	X19	Y19	Z19	X20	Y20	Z20	X21	Y21	Z21	X22	Y22	Z22	X23	Y23	Z23	X24	Y24	Z24	X25	Y25	Z25	X26	Y26	Z26	X27	Y27	Z27	X28	Y28	Z28	X29	Y29	Z29	X30	Y30	Z30	X31	Y31	Z31	X32	Y32	Z32	X33	Y33	Z33	X34	Y34	Z34	X35	Y35	Z35	X36	Y36	Z36	X37	Y37	Z37	X38	Y38	Z38	X39	Y39	Z39	X40	Y40	Z40	X41	Y41	Z41	X42	Y42	Z42	X43	Y43	Z43	X44	Y44	Z44	X45	Y45	Z45	X46	Y46	Z46	X47	Y47	Z47	X48	Y48	Z48	X49	Y49	Z49	
0	0.0000	365.479788	1316.864982	-60.615898	380.487132	1315.766774	-369.802745	337.659356	1360.092461	-215.141911	340.015689	1214.124826	-210.905436	454.571837	1072.480061	9.784306	621.303446	916.028804	-35.912168	436.958973	1060.575090	-474.190390	614.070273	914.282828	-437.696802	-165.849533	1115.397928	-225.153179	-0.881360	1136.076579	-379.488586	11.097772	1141.339812	-94.818464	32.545541	1048.945439	-349.955575	14.237168	1055.023068	-93.513359	-128.619260	1175.275799	-168.141496	-118.541872	1180.937708	-280.510530	-91.404783	1024.152069	-33.671123	-91.530001	996.199510	-415.320951	12.720961	920.397448	-8.543248	96.858125	893.494455	-20.754229	154.170798	830.315499	-29.484376	114.816722	925.786954	-26.409769	250.128886	775.194671	-46.079909	243.743084	766.349528	-161.623328	216.093826	664.227707	-19.885181	232.145016	577.683099	-34.902469	203.631060	496.224591	-42.044391	260.947483	579.841344	-61.059912	194.380908	392.633983	-62.439837	211.189160	418.715151	-143.155900	146.994750	356.969216	-108.577473	385.227287	397.994840	-104.225477	313.015643	350.755673	-42.049137	-12.229094	889.709419	-430.505780	60.217467	843.469324	-417.863103	85.852084	867.372251	-410.704696	100.059296	764.644708	-410.343871	168.529306	680.506165	-391.719256	171.762687	675.651068	-272.110606	-88.583637	402.471425	-378.065649	-152.805644	388.053238	-331.196426	-8.894484	288.869475	-400.640026	74.307983	601.747197	-416.401765	44.822608	520.453357	-401.520494	-25.625546	465.265404	-396.744067	68.171950	505.743406	-374.222243	79.331344	289.779863	-346.253868	-218.061418	833.791019	-214.509527	-104.313492	80.363268	-418.487354	-103.565083	81.217707	-18.023623	
1	0.0050	365.476529	1316.891040	-60.636244	380.507461	1315.750560	-369.757832	337.685736	1360.068793	-215.099515	340.046774	1214.096734	-210.872059	454.689126	1072.590974	9.654793	621.323761	916.009895	-36.003711	437.037347	1060.559810	-474.158728	614.077022	914.284718	-437.678479	-165.854040	1115.398074	-225.145657	-0.898595	1136.041630	-379.423761	11.086233	1141.327266	-94.810127	32.547147	1048.899773	-349.959288	14.233288	1054.961460	-93.501887	-128.605073	1175.478094	-167.943404	-118.530012	1180.916255	-280.500792	-91.394975	1024.165251	-33.633223	-91.551554	996.207587	-415.314581	12.741490	920.405337	-8.538529	96.879580	893.518241	-20.740972	154.209830	830.395274	-29.464876	114.841301	925.831390	-26.408835	250.167032	775.261869	-46.061103	243.765911	766.408390	-161.634684	216.106456	664.303210	-19.865416	232.155283	577.724370	-34.879993	203.595220	496.311243	-42.021570	260.982766	579.854686	-61.067441	194.391139	392.686733	-62.435194	211.088387	418.838338	-143.102393	146.978026	357.022521	-108.580387	385.232593	398.036441	-104.242797	313.009999	350.786734	-42.060514	-12.254714	889.685366	-430.488326	60.189447	843.470409	-417.867443	85.824434	867.368720	-410.701859	100.048490	764.639071	-410.331603	168.538108	680.498487	-391.677119	171.806341	675.612939	-272.085885	-88.588244	402.439056	-378.071867	-152.809614	388.024925	-331.194013	-8.876934	288.839116	-400.638160	74.305687	601.737798	-416.401533	44.823233	520.433975	-401.511726	-25.633914	465.264568	-396.757463	68.161968	505.718764	-374.207427	79.337464	289.763232	-346.272687	-218.063407	833.778816	-214.508265	-104.100363	81.808253	-417.576784	-103.567589	81.225743	-18.037237	
2	0.0100	365.484391	1316.917755	-60.642246	380.531347	1315.709015	-369.732623	337.719211	1360.035434	-215.072031	340.055792	1214.075047	-210.821115	454.811780	1072.699546	9.594375	621.353643	916.003278	-36.087851	437.052053	1060.569704	-474.118843	614.088373	914.289699	-437.685856	-165.846432	1115.400996	-225.110069	-0.844299	1136.020477	-379.434633	11.095076	1141.312208	-94.785557	32.554095	1048.849951	-349.926625	14.236187	1054.951419	-93.473315	-128.604328	1175.470409	-167.941698	-118.517127	1180.908591	-280.492446	-91.396115	1024.165580	-33.606932	-91.580045	996.190195	-415.294618	12.754407	920.438886	-8.506577	96.915698	893.568653	-20.722765	154.022578	830.292891	-29.683069	114.829403	925.885106	-26.407462	250.184583	775.324542	-46.045308	243.793108	766.451316	-161.609872	216.115216	664.346793	-19.845080	232.169302	577.768208	-34.856171	203.600120	496.358936	-42.004368	260.991961	579.898791	-61.036776	194.407760	392.739248	-62.417841	211.080664	418.856296	-143.098262	146.995140	357.078773	-108.606389	385.231912	398.067412	-104.234553	313.015199	350.826058	-42.055112	-12.282921	889.670532	-430.470009	60.163242	843.430379	-417.845530	85.801160	867.373293	-410.703230	100.018606	764.628327	-410.312922	168.534164	680.483735	-391.652370	171.841233	675.606050	-272.045349	-88.569013	402.407123	-378.056311	-152.796141	387.968437	-331.194015	-8.877310	288.804294	-400.629128	74.302315	601.699345	-416.363504	44.811529	520.416622	-401.498723	-25.650784	465.224205	-396.744254	68.159739	505.699666	-374.215301	79.838634	290.982020	-346.375175	-218.054238	833.792311	-214.506378	-104.091267	81.832181	-417.564393	-103.562087	81.222883	-18.034744	
3	0.0150	365.479449	1316.980661	-60.667720	380.573987	1315.674719	-369.692780	337.732285	1360.024437	-215.037254	340.064737	1214.090031	-210.792451	455.025276	1072.876746	9.580218	621.338917	916.027440	-36.204519	437.305141	1060.873718	-473.947808	614.110991	914.306400	-437.693013	-165.804719	1116.492005	-226.156585	1.276848	1136.514301	-380.791689	11.120779	1141.304288	-94.781022	32.549107	1048.818703	-349.925974	14.246324	1054.935910	-93.475178	-128.598951	1175.470125	-167.915946	-118.498878	1180.897775	-280.477508	-91.389519	1024.183842	-33.583783	-91.604756	996.166740	-415.280921	12.043364	919.276379	-9.946054	97.331222	893.518338	-20.634292	152.922242	830.221750	-30.036881	114.818712	925.919276	-26.391316	250.208684	775.392608	-46.022686	243.820145	766.514341	-161.579474	216.133305	664.383290	-19.807721	232.165079	577.826460	-34.810500	203.903115	496.672021	-41.611915	261.093808	580.008102	-60.904349	194.361247	392.805086	-62.347589	211.054970	418.930051	-143.071486	146.977634	357.142079	-108.592900	385.239246	398.115048	-104.235262	312.998458	350.870884	-42.056522	-12.335270	889.657381	-430.459910	60.129415	843.394006	-417.825271	86.044986	867.890126	-409.754145	99.972905	764.598939	-410.284253	168.497337	679.878039	-391.075321	171.700010	675.589139	-271.894071	-88.571574	402.370188	-377.887659	-152.771139	388.230630	-331.179265	-8.865566	288.781332	-400.623782	74.282465	601.679591	-416.337857	44.099878	519.258063	-401.419336	-25.669209	465.199080	-396.728063	68.272406	506.461833	-374.866200	79.268757	293.016850	-349.736558	-218.059862	833.783849	-214.499586	-104.080722	81.812816	-417.562256	-103.585914	81.249192	-18.035989	
4	0.0200	365.513090	1317.026367	-60.766025	380.644087	1315.540420	-369.508854	337.717583	1360.024497	-214.942381	340.225118	1213.968099	-210.482394	455.081108	1073.003219	9.544430	621.093745	914.977899	-36.236475	437.187451	1059.912531	-473.720804	614.078780	914.200695	-437.518778	-166.140081	1115.366716	-225.484366	1.242584	1136.448606	-380.760119	11.122372	1141.292469	-94.773942	32.279143	1047.950560	-349.690610	14.256690	1054.913187	-93.480953	-128.555373	1175.585371	-167.988513	-118.396449	1181.061047	-280.343234	-91.220436	1024.406814	-33.332796	-91.752749	995.630922	-415.220759	12.057546	919.326560	-9.923819	97.379782	893.579846	-20.658068	153.592850	830.536605	-29.797145	114.950056	926.199859	-26.180331	250.287732	775.565360	-45.901283	243.854297	766.525160	-161.326774	216.337545	664.485874	-19.679273	232.265329	577.929272	-34.915940	203.948800	496.709146	-41.616412	261.073326	580.019910	-60.685775	194.389942	392.908967	-62.242877	211.360626	419.156972	-142.740353	146.861394	357.394723	-108.310448	385.242172	398.105426	-104.295261	313.123045	350.986770	-41.938704	-12.495119	889.004423	-430.365687	59.810208	842.554739	-417.511707	85.639401	866.983838	-409.442075	99.789025	763.782463	-410.115540	168.013983	678.854443	-390.419585	171.733368	675.539134	-271.880423	-88.912992	401.669603	-377.952002	-152.968937	387.429179	-331.226524	-9.138587	287.874677	-400.654904	74.114240	600.859168	-415.991227	44.097655	519.146407	-401.293087	-25.762503	464.471551	-396.696351	67.772304	506.266943	-374.343501	79.889056	292.306858	-349.888966	-218.358280	833.030513	-214.283254	-104.209556	80.620601	-418.625194	-103.977831	80.502311	-18.308224	
